<?xml version="1.0" encoding="UTF-8" standalone="no"?>
<!-- Created with Inkscape (http://www.inkscape.org/) -->

<svg
   xmlns:dc="http://purl.org/dc/elements/1.1/"
   xmlns:cc="http://creativecommons.org/ns#"
   xmlns:rdf="http://www.w3.org/1999/02/22-rdf-syntax-ns#"
   xmlns:svg="http://www.w3.org/2000/svg"
   xmlns="http://www.w3.org/2000/svg"
   version="1.1"
   width="672.49609"
   height="159.90793"
   id="svg2">
  <defs
     id="defs4" />
  <metadata
     id="metadata7">
    <rdf:RDF>
      <cc:Work
         rdf:about="">
        <dc:format>image/svg+xml</dc:format>
        <dc:type
           rdf:resource="http://purl.org/dc/dcmitype/StillImage" />
        <dc:title></dc:title>
      </cc:Work>
    </rdf:RDF>
  </metadata>
  <g
     transform="translate(-257.52434,-596.34646)"
     id="layer1"
     style="display:inline">
    <g
       id="text3007"
       style="font-size:40px;font-style:normal;font-weight:normal;line-height:125%;letter-spacing:0px;word-spacing:0px;fill:#000000;fill-opacity:1;stroke:none;font-family:Sans">
      <path
         d="m 398.1806,659.46246 28.08106,0 c 8.34956,7e-5 14.75092,1.86042 19.2041,5.58106 4.48236,3.69146 6.72357,8.96489 6.72363,15.82031 -6e-5,6.8848 -2.24127,12.18753 -6.72363,15.9082 -4.45318,3.69143 -10.85454,5.53714 -19.2041,5.53711 l -11.16211,0 0,22.76367 -16.91895,0 0,-65.61035 m 16.91895,12.26075 0,18.32519 9.36035,0 c 3.28121,4e-5 5.81539,-0.79098 7.60254,-2.37305 1.78706,-1.61129 2.68062,-3.88179 2.68066,-6.81152 -4e-5,-2.92964 -0.8936,-5.1855 -2.68066,-6.76758 -1.78715,-1.58198 -4.32133,-2.37299 -7.60254,-2.37304 l -9.36035,0"
         id="path3003"
         style="font-size:90px;-inkscape-font-specification:Verdana Bold" />
      <path
         d="m 466.27631,659.46246 60.46875,0 0,12.78809 -21.75293,0 0,52.82226 -16.91895,0 0,-52.82226 -21.79687,0 0,-12.78809"
         id="path3005"
         style="font-size:90px;-inkscape-font-specification:Verdana Bold" />
      <path
         d="m 545.44623,659.46246 16.91894,0 0,65.61035 -16.91894,0 0,-65.61035"
         id="path3007"
         style="font-size:90px;-inkscape-font-specification:Verdana Bold" />
      <path
         d="m 641.0517,721.4693 c -3.10553,1.61133 -6.34283,2.82715 -9.71192,3.64746 -3.36919,0.82031 -6.88481,1.23047 -10.54687,1.23047 -10.92777,0 -19.58498,-3.04687 -25.97168,-9.14063 -6.38673,-6.12303 -9.58008,-14.41404 -9.58008,-24.87304 0,-10.48824 3.19335,-18.77925 9.58008,-24.87305 6.3867,-6.12298 15.04391,-9.1845 25.97168,-9.18457 3.66206,7e-5 7.17768,0.41022 10.54687,1.23047 3.36909,0.82038 6.60639,2.0362 9.71192,3.64746 l 0,13.5791 c -3.13483,-2.13862 -6.22564,-3.706 -9.27246,-4.70215 -3.04693,-0.99604 -6.25493,-1.49408 -9.62403,-1.49414 -6.03519,6e-5 -10.78128,1.93365 -14.23828,5.80078 -3.45705,3.86724 -5.18557,9.19926 -5.18555,15.9961 -2e-5,6.7676 1.7285,12.08498 5.18555,15.95215 3.457,3.8672 8.20309,5.80079 14.23828,5.80078 3.3691,10e-6 6.5771,-0.49804 9.62403,-1.49414 3.04682,-0.99608 6.13763,-2.56347 9.27246,-4.70215 l 0,13.5791"
         id="path3009"
         style="font-size:90px;-inkscape-font-specification:Verdana Bold" />
      <path
         d="m 666.03217,652.17242 20.99609,0 26.51367,50 0,-50 17.82227,0 0,72.90039 -20.9961,0 -26.51367,-50 0,50 -17.82226,0 0,-72.90039"
         id="path3011"
         style="font-size:100px;font-variant:normal;font-weight:bold;font-stretch:normal;letter-spacing:10px;font-family:Verdana;-inkscape-font-specification:Verdana Bold" />
      <path
         d="m 798.71771,713.11969 -26.45508,0 -4.1748,11.95312 -17.00684,0 24.30176,-65.61035 20.1709,0 24.30176,65.61035 -17.00684,0 -4.13086,-11.95312 m -22.23633,-12.17285 17.97364,0 -8.96485,-26.10352 -9.00879,26.10352"
         id="path3013"
         style="font-size:90px;-inkscape-font-specification:Verdana Bold" />
      <path
         d="m 824.58197,659.46246 17.00684,0 17.40234,48.42774 17.3584,-48.42774 17.00683,0 -24.30175,65.61035 -20.1709,0 -24.30176,-65.61035"
         id="path3015"
         style="font-size:90px;-inkscape-font-specification:Verdana Bold" />
    </g>
    <g
       transform="matrix(-0.80373314,-0.59498995,0.59498995,-0.80373314,370.11861,1971.8749)"
       id="use3887"
       style="display:inline">
      <path
         d="m 831.42855,691.9516 c 0,34.91229 -27.34261,63.21429 -61.07143,63.21429 -33.72882,0 -61.07143,-28.302 -61.07143,-63.21429 0,-34.91229 27.34261,-63.21429 61.07143,-63.21429 33.72882,0 61.07143,28.302 61.07143,63.21429 z"
         transform="matrix(0.81871343,0,0,0.79096044,169.29828,455.05584)"
         id="path2996"
         style="fill:#000000;fill-opacity:1;stroke:none" />
      <path
         d="m 750,1002.3622 100,0 c 0.069,49.4437 -50,96.9286 -50,96.9286 0,0 -49.64285,-47.5238 -50,-96.9286 z"
         id="path2998"
         style="fill:#000000;fill-opacity:1;stroke:none" />
      <path
         d="m 962.67536,618.58301 c 0,19.10779 -15.48993,34.59772 -34.59772,34.59772 -19.1078,0 -34.59773,-15.48993 -34.59773,-34.59772 0,-19.1078 15.48993,-34.59773 34.59773,-34.59773 19.10779,0 34.59772,15.48993 34.59772,34.59773 z"
         transform="matrix(0.86710904,0,0,0.86710904,-4.7445113,465.98326)"
         id="path3000"
         style="fill:#ffffff;fill-opacity:1;stroke:none" />
    </g>
  </g>
</svg>
