<?xml version="1.0" encoding="UTF-8" standalone="no"?>
<!-- Created with Inkscape (http://www.inkscape.org/) -->

<svg
   xmlns:dc="http://purl.org/dc/elements/1.1/"
   xmlns:cc="http://creativecommons.org/ns#"
   xmlns:rdf="http://www.w3.org/1999/02/22-rdf-syntax-ns#"
   xmlns:svg="http://www.w3.org/2000/svg"
   xmlns="http://www.w3.org/2000/svg"
   xmlns:xlink="http://www.w3.org/1999/xlink"
   xmlns:sodipodi="http://sodipodi.sourceforge.net/DTD/sodipodi-0.dtd"
   xmlns:inkscape="http://www.inkscape.org/namespaces/inkscape"
   width="175"
   height="175"
   id="svg3876"
   version="1.1"
   inkscape:version="0.48.4 r9939"
   sodipodi:docname="Anchor.svg">
  <defs
     id="defs3878">
    <marker
       inkscape:stockid="Arrow1Mend"
       orient="auto"
       refY="0.0"
       refX="0.0"
       id="Arrow1Mend"
       style="overflow:visible;">
      <path
         id="path4422"
         d="M 0.0,0.0 L 5.0,-5.0 L -12.5,0.0 L 5.0,5.0 L 0.0,0.0 z "
         style="fill-rule:evenodd;stroke:#000000;stroke-width:1.0pt;"
         transform="scale(0.4) rotate(180) translate(10,0)" />
    </marker>
    <marker
       inkscape:stockid="Arrow1Lend"
       orient="auto"
       refY="0.0"
       refX="0.0"
       id="Arrow1Lend"
       style="overflow:visible;">
      <path
         id="path4416"
         d="M 0.0,0.0 L 5.0,-5.0 L -12.5,0.0 L 5.0,5.0 L 0.0,0.0 z "
         style="fill-rule:evenodd;stroke:#000000;stroke-width:1.0pt;"
         transform="scale(0.8) rotate(180) translate(12.5,0)" />
    </marker>
    <marker
       inkscape:stockid="Arrow1Lstart"
       orient="auto"
       refY="0.0"
       refX="0.0"
       id="Arrow1Lstart"
       style="overflow:visible">
      <path
         id="path4413"
         d="M 0.0,0.0 L 5.0,-5.0 L -12.5,0.0 L 5.0,5.0 L 0.0,0.0 z "
         style="fill-rule:evenodd;stroke:#000000;stroke-width:1.0pt"
         transform="scale(0.8) translate(12.5,0)" />
    </marker>
    <marker
       inkscape:stockid="Arrow2Mstart"
       orient="auto"
       refY="0.0"
       refX="0.0"
       id="Arrow2Mstart"
       style="overflow:visible">
      <path
         id="path4437"
         style="fill-rule:evenodd;stroke-width:0.62500000;stroke-linejoin:round"
         d="M 8.7185878,4.0337352 L -2.2072895,0.016013256 L 8.7185884,-4.0017078 C 6.9730900,-1.6296469 6.9831476,1.6157441 8.7185878,4.0337352 z "
         transform="scale(0.6) translate(0,0)" />
    </marker>
  </defs>
  <sodipodi:namedview
     id="base"
     pagecolor="#ffffff"
     bordercolor="#666666"
     borderopacity="1.0"
     inkscape:pageopacity="1"
     inkscape:pageshadow="2"
     inkscape:zoom="1.0647008"
     inkscape:cx="-52.819284"
     inkscape:cy="58.339"
     inkscape:document-units="px"
     inkscape:current-layer="g3814"
     showgrid="false"
     fit-margin-top="0"
     fit-margin-left="0"
     fit-margin-right="0"
     fit-margin-bottom="0"
     inkscape:window-width="1366"
     inkscape:window-height="588"
     inkscape:window-x="0"
     inkscape:window-y="24"
     inkscape:window-maximized="1" />
  <metadata
     id="metadata3881">
    <rdf:RDF>
      <cc:Work
         rdf:about="">
        <dc:format>image/svg+xml</dc:format>
        <dc:type
           rdf:resource="http://purl.org/dc/dcmitype/StillImage" />
        <dc:title></dc:title>
      </cc:Work>
    </rdf:RDF>
  </metadata>
  <g
     inkscape:label="Layer 1"
     inkscape:groupmode="layer"
     id="layer1"
     transform="translate(-818.57139,-550.82647)">
    <g
       transform="matrix(1.0832338,0,0,1.0832338,39.484279,-472.88346)"
       style="display:inline"
       id="g3814">
      <path
         style="fill:#500b0b;fill-opacity:1;stroke:#ff3232;stroke-width:10;stroke-miterlimit:4;stroke-opacity:1;stroke-dasharray:none"
         d="m 87.5,14.03125 c -27.614238,0 -50,22.385762 -50,50 0.0056,0.77195 0.03323,1.541643 0.0625,2.3125 0.01476,0.322781 0.04164,0.647594 0.0625,0.96875 2.43895,48.20577 49.875,93.65625 49.875,93.65625 0,0 50.069,-47.4938 50,-96.9375 0,-27.614238 -22.38576,-50 -50,-50 z"
         id="path3026"
         inkscape:connector-curvature="0"
         transform="translate(712.50003,938.32649)" />
      <path
         transform="matrix(0.93389554,0,0,0.93389554,-66.7275,424.7675)"
         d="m 962.67536,618.58301 c 0,19.10779 -15.48993,34.59772 -34.59772,34.59772 -19.1078,0 -34.59773,-15.48993 -34.59773,-34.59772 0,-19.1078 15.48993,-34.59773 34.59773,-34.59773 19.10779,0 34.59772,15.48993 34.59772,34.59773 z"
         sodipodi:ry="34.597725"
         sodipodi:rx="34.597725"
         sodipodi:cy="618.58301"
         sodipodi:cx="928.07764"
         id="path3803"
         style="fill:#ffffff;fill-opacity:1;stroke:none"
         sodipodi:type="arc" />
    </g>
    <g
       id="g6077"
       transform="matrix(1.2160553,0,0,1.2160553,-98.683657,-379.5992)">
      <path
         transform="translate(818.57139,550.82647)"
         d="m 12.618596,252.53795 c 0,2.75094 -2.230081,4.98102 -4.9810247,4.98102 -2.750944,0 -4.9810247,-2.23008 -4.9810247,-4.98102 0,-2.75095 2.2300807,-4.98103 4.9810247,-4.98103 2.7509437,0 4.9810247,2.23008 4.9810247,4.98103 z"
         sodipodi:ry="4.9810247"
         sodipodi:rx="4.9810247"
         sodipodi:cy="252.53795"
         sodipodi:cx="7.6375713"
         id="path5982"
         style="fill:none;stroke:#000000;stroke-width:4.11165524;stroke-miterlimit:4;stroke-opacity:1;stroke-dasharray:none;stroke-dashoffset:0"
         sodipodi:type="arc" />
      <path
         transform="translate(818.57139,550.82647)"
         inkscape:connector-curvature="0"
         id="path5984"
         d="m 7.8036053,256.85484 0,25.73529"
         style="fill:none;stroke:#000000;stroke-width:4.93398619;stroke-linecap:butt;stroke-linejoin:miter;stroke-miterlimit:4;stroke-opacity:1;stroke-dasharray:none" />
      <g
         id="g6012">
        <path
           style="font-size:medium;font-style:normal;font-variant:normal;font-weight:normal;font-stretch:normal;text-indent:0;text-align:start;text-decoration:none;line-height:normal;letter-spacing:normal;word-spacing:normal;text-transform:none;direction:ltr;block-progression:tb;writing-mode:lr-tb;text-anchor:start;baseline-shift:baseline;color:#000000;fill:#000000;fill-opacity:1;stroke:none;stroke-width:4;marker:none;visibility:visible;display:inline;overflow:visible;enable-background:accumulate;font-family:Sans;-inkscape-font-specification:Sans"
           d="m 809.45812,816.54262 -1.8518,3.64676 18.61942,18.71536 0.30052,-9.81499 z"
           id="path5986"
           inkscape:connector-curvature="0"
           sodipodi:nodetypes="ccccc" />
        <path
           style="fill:#000000;fill-opacity:1;stroke:#000000;stroke-width:1.64466214;stroke-linejoin:round;stroke-miterlimit:4;stroke-opacity:1;stroke-dasharray:none"
           d="m -14.384541,263.48786 1.571425,9.16872 8.0835864,-8.93392 z"
           id="path6010"
           inkscape:connector-curvature="0"
           transform="translate(818.57139,550.82647)"
           sodipodi:nodetypes="cccc" />
      </g>
      <path
         inkscape:connector-curvature="0"
         id="path6031"
         d="m 821.03687,817.40149 10.91856,0"
         style="fill:none;stroke:#000000;stroke-width:3.28932428;stroke-linecap:round;stroke-linejoin:miter;stroke-miterlimit:4;stroke-opacity:1;stroke-dasharray:none" />
      <use
         height="175"
         width="175"
         transform="matrix(-1,0,0,1,1652.4825,0)"
         id="use6075"
         xlink:href="#g6012"
         y="0"
         x="0" />
    </g>
  </g>
</svg>
